<svg width="18" height="18" viewBox="0 0 18 18" fill="none" xmlns="http://www.w3.org/2000/svg">
<mask id="path-1-inside-1_1_8" fill="white">
<path d="M12.6709 7.0001C12.5878 7.00182 12.509 7.02593 12.4511 7.06733L7.56212 10.4639L5.55035 9.06622C5.52089 9.04491 5.48561 9.02789 5.44656 9.01617C5.40752 9.00444 5.3655 8.99825 5.32297 8.99795C5.28044 8.99765 5.23825 9.00325 5.19887 9.01441C5.15949 9.02558 5.12372 9.0421 5.09364 9.06299C5.06357 9.08389 5.0398 9.10874 5.02372 9.1361C5.00764 9.16346 4.99958 9.19277 5.00002 9.22232C5.00045 9.25187 5.00936 9.28106 5.02624 9.30818C5.04311 9.33531 5.06761 9.35982 5.09829 9.38028L7.33609 10.935C7.39605 10.9766 7.47735 11 7.56212 11C7.64689 11 7.72819 10.9766 7.78815 10.935L12.9031 7.38139C12.9493 7.3502 12.9809 7.31003 12.9937 7.26616C13.0064 7.2223 12.9998 7.17677 12.9747 7.13555C12.9496 7.09433 12.9072 7.05935 12.8529 7.03517C12.7987 7.011 12.7353 6.99878 12.6709 7.0001Z"/>
</mask>
<path d="M12.6709 7.0001C12.5878 7.00182 12.509 7.02593 12.4511 7.06733L7.56212 10.4639L5.55035 9.06622C5.52089 9.04491 5.48561 9.02789 5.44656 9.01617C5.40752 9.00444 5.3655 8.99825 5.32297 8.99795C5.28044 8.99765 5.23825 9.00325 5.19887 9.01441C5.15949 9.02558 5.12372 9.0421 5.09364 9.06299C5.06357 9.08389 5.0398 9.10874 5.02372 9.1361C5.00764 9.16346 4.99958 9.19277 5.00002 9.22232C5.00045 9.25187 5.00936 9.28106 5.02624 9.30818C5.04311 9.33531 5.06761 9.35982 5.09829 9.38028L7.33609 10.935C7.39605 10.9766 7.47735 11 7.56212 11C7.64689 11 7.72819 10.9766 7.78815 10.935L12.9031 7.38139C12.9493 7.3502 12.9809 7.31003 12.9937 7.26616C13.0064 7.2223 12.9998 7.17677 12.9747 7.13555C12.9496 7.09433 12.9072 7.05935 12.8529 7.03517C12.7987 7.011 12.7353 6.99878 12.6709 7.0001Z" fill="#74C898"/>
<path d="M12.6709 7.0001L12.6299 5.00052L12.6295 5.00052L12.6709 7.0001ZM12.4511 7.06733L13.5922 8.70985C13.5996 8.70469 13.607 8.69948 13.6144 8.69422L12.4511 7.06733ZM7.56212 10.4639L6.421 12.1064C7.10709 12.583 8.01716 12.583 8.70324 12.1064L7.56212 10.4639ZM5.55035 9.06622L4.37789 10.6865C4.38827 10.694 4.39871 10.7014 4.40923 10.7087L5.55035 9.06622ZM5.09829 9.38028L6.23941 7.73777C6.22904 7.73057 6.21861 7.72346 6.20811 7.71646L5.09829 9.38028ZM7.33609 10.935L6.19497 12.5775L6.19529 12.5777L7.33609 10.935ZM7.78815 10.935L8.92895 12.5777L8.92927 12.5775L7.78815 10.935ZM12.9031 7.38139L11.7838 5.72394C11.7765 5.72887 11.7692 5.73385 11.762 5.73888L12.9031 7.38139ZM12.6295 5.00052C12.2125 5.00916 11.7256 5.12739 11.2878 5.44045L13.6144 8.69422C13.2924 8.92447 12.9631 8.99448 12.7123 8.99967L12.6295 5.00052ZM11.31 5.42482L6.421 8.82137L8.70324 12.1064L13.5922 8.70985L11.31 5.42482ZM8.70324 8.82137L6.69147 7.42371L4.40923 10.7087L6.421 12.1064L8.70324 8.82137ZM6.7228 7.44593C6.49162 7.27864 6.24927 7.16898 6.02174 7.10066L4.87139 10.9317C4.72194 10.8868 4.55016 10.8112 4.37789 10.6865L6.7228 7.44593ZM6.02174 7.10066C5.79289 7.03194 5.56144 6.99958 5.33711 6.998L5.30883 10.9979C5.16956 10.9969 5.02215 10.9769 4.87139 10.9317L6.02174 7.10066ZM5.33711 6.998C5.11274 6.99641 4.88162 7.0255 4.65312 7.09032L5.74462 10.9385C5.59488 10.981 5.44814 10.9989 5.30883 10.9979L5.33711 6.998ZM4.65312 7.09032C4.42589 7.15477 4.18416 7.25956 3.95252 7.42048L6.23476 10.7055C6.06328 10.8246 5.8931 10.8964 5.74462 10.9385L4.65312 7.09032ZM3.95252 7.42048C3.72131 7.58112 3.48303 7.81034 3.29941 8.1228L6.74803 10.1494C6.59656 10.4071 6.40583 10.5867 6.23476 10.7055L3.95252 7.42048ZM3.29941 8.1228C3.11201 8.44171 2.99404 8.82877 3.00023 9.2516L6.9998 9.19303C7.00513 9.55676 6.90328 9.8852 6.74803 10.1494L3.29941 8.1228ZM3.00023 9.2516C3.00642 9.67393 3.13528 10.0548 3.32804 10.3647L6.72443 8.25171C6.88345 8.50731 6.99448 8.8298 6.9998 9.19303L3.00023 9.2516ZM3.32804 10.3647C3.51707 10.6685 3.75708 10.8898 3.98847 11.0441L6.20811 7.71646C6.37813 7.82987 6.56916 8.00212 6.72443 8.25171L3.32804 10.3647ZM3.95717 11.0228L6.19497 12.5775L8.47721 9.29246L6.23941 7.73777L3.95717 11.0228ZM6.19529 12.5777C6.64184 12.8878 7.1373 13 7.56212 13V9C7.8174 9 8.15026 9.06541 8.47689 9.29224L6.19529 12.5777ZM7.56212 13C7.98694 13 8.4824 12.8878 8.92895 12.5777L6.64735 9.29224C6.97399 9.06541 7.30684 9 7.56212 9V13ZM8.92927 12.5775L14.0442 9.02391L11.762 5.73888L6.64703 9.29246L8.92927 12.5775ZM14.0224 9.03885C14.3674 8.80589 14.7436 8.41016 14.9139 7.82533L11.0734 6.707C11.2182 6.2099 11.5312 5.89451 11.7838 5.72394L14.0224 9.03885ZM14.9139 7.82533C15.0934 7.2088 14.9816 6.58559 14.6828 6.09508L11.2667 8.17602C11.0181 7.76795 10.9194 7.2358 11.0734 6.707L14.9139 7.82533ZM14.6828 6.09508C14.4022 5.63445 14.0061 5.3595 13.6673 5.20846L12.0386 8.86189C11.8082 8.75919 11.4971 8.55422 11.2667 8.17602L14.6828 6.09508ZM13.6673 5.20846C13.3219 5.05449 12.9632 4.99369 12.6299 5.00052L12.7118 8.99968C12.5073 9.00387 12.2756 8.96752 12.0386 8.86189L13.6673 5.20846Z" fill="#74C898" mask="url(#path-1-inside-1_1_8)"/>
<circle cx="9" cy="9" r="8" stroke="#74C898" stroke-width="2"/>
</svg>
